<svg width="160" height="160" viewBox="0 0 160 160" fill="none" xmlns="http://www.w3.org/2000/svg">
  <defs>
    <linearGradient id="bg" x1="20" x2="140" y1="18" y2="142" gradientUnits="userSpaceOnUse">
      <stop stop-color="#0F172A"/>
      <stop offset="1" stop-color="#1E293B"/>
    </linearGradient>
    <linearGradient id="accent" x1="40" x2="120" y1="44" y2="116" gradientUnits="userSpaceOnUse">
      <stop stop-color="#38BDF8"/>
      <stop offset="1" stop-color="#22C55E"/>
    </linearGradient>
  </defs>
  <rect x="10" y="10" width="140" height="140" rx="34" fill="url(#bg)"/>
  <path d="M48 82L80 54L112 82V109C112 112.314 109.314 115 106 115H54C50.6863 115 48 112.314 48 109V82Z" fill="url(#accent)" fill-opacity="0.95"/>
  <rect x="58" y="63" width="44" height="8" rx="4" fill="#F8FAFC" fill-opacity="0.9"/>
  <rect x="62" y="75" width="36" height="7" rx="3.5" fill="#E2E8F0" fill-opacity="0.92"/>
  <path d="M66 56H94" stroke="#F8FAFC" stroke-width="6" stroke-linecap="round"/>
  <path d="M58 94H102" stroke="#0F172A" stroke-width="6" stroke-linecap="round" opacity="0.28"/>
  <circle cx="80" cy="45" r="10" fill="#F8FAFC" fill-opacity="0.96"/>
  <path d="M80 37V53" stroke="#0F172A" stroke-width="4" stroke-linecap="round"/>
  <path d="M72 45H88" stroke="#0F172A" stroke-width="4" stroke-linecap="round"/>
</svg>
